<svg xmlns="http://www.w3.org/2000/svg" viewBox="0 0 1200 800" role="img" aria-labelledby="title desc">
  <title id="title">Campus Courtyard Mock</title>
  <desc id="desc">Illustration of a university courtyard with walkways and trees.</desc>
  <defs>
    <linearGradient id="sky" x1="0" y1="0" x2="0" y2="1">
      <stop offset="0%" stop-color="#dbeafe" />
      <stop offset="100%" stop-color="#bfdbfe" />
    </linearGradient>
    <linearGradient id="ground" x1="0" y1="0" x2="0" y2="1">
      <stop offset="0%" stop-color="#86efac" />
      <stop offset="100%" stop-color="#4ade80" />
    </linearGradient>
  </defs>
  <rect width="1200" height="800" fill="url(#sky)" />
  <rect y="440" width="1200" height="360" fill="url(#ground)" />
  <rect x="250" y="230" width="700" height="290" fill="#f8fafc" rx="12" />
  <rect x="320" y="280" width="130" height="170" fill="#cbd5e1" rx="8" />
  <rect x="500" y="280" width="130" height="170" fill="#cbd5e1" rx="8" />
  <rect x="680" y="280" width="130" height="170" fill="#cbd5e1" rx="8" />
  <rect x="562" y="360" width="75" height="160" fill="#94a3b8" rx="6" />
  <path d="M0 800 L600 520 L1200 800 Z" fill="#d4a373" opacity="0.92" />
  <circle cx="170" cy="470" r="45" fill="#22c55e" />
  <rect x="160" y="470" width="20" height="90" fill="#15803d" />
  <circle cx="1030" cy="480" r="45" fill="#16a34a" />
  <rect x="1020" y="480" width="20" height="90" fill="#166534" />
  <text x="60" y="90" font-size="46" font-family="Georgia, serif" fill="#1e3a8a">Campus Courtyard</text>
</svg>
